<?xml version="1.0" encoding="utf-8"?>
<!-- Generator: Adobe Illustrator 24.2.3, SVG Export Plug-In . SVG Version: 6.00 Build 0)  -->
<svg version="1.1" id="Layer_1" xmlns="http://www.w3.org/2000/svg" xmlns:xlink="http://www.w3.org/1999/xlink" x="0px" y="0px"
	 viewBox="0 0 125 31.74" style="enable-background:new 0 0 125 31.74;" xml:space="preserve">
<path d="M105.38,7.43v17.25h8.5c2.38,0,3.75-0.38,4.75-1.25c1.25-1.12,1.88-3.12,1.88-7.38s-0.62-6.25-1.88-7.38
	c-1-0.88-2.38-1.25-4.75-1.25L105.38,7.43L105.38,7.43z M117,16.05c0,3.75-0.25,4.62-1,5.12c-0.5,0.38-1.12,0.5-2.38,0.5h-4.75V10.3
	h4.75c1.25,0,1.88,0,2.38,0.5C116.75,11.43,117,12.3,117,16.05z M124.88,28.49H99.94V3.55h24.94
	C124.88,3.55,124.88,28.49,124.88,28.49z M79.56,10.3V7.43h14.75v5.5h-3.13V10.3h-6v4.12h4.75v2.75h-4.75v4.62h6.13v-3h3.12v5.88
	H79.56v-2.88h2.37V10.3H79.56z M66.19,20.17c0,1.88,0.12,3.25,0.37,4.38h3.38c-0.13-0.88-0.25-2.5-0.25-4.62
	c-0.13-2.5-0.88-2.88-2.63-3.25c2-0.38,2.88-1.25,2.88-4.38c0-2.5-0.38-3.5-1.13-4.12c-0.5-0.5-1.37-0.75-2.75-0.75h-10.5v17.25h3.5
	v-6.75h4.88c1,0,1.37,0.12,1.75,0.38S66.19,18.93,66.19,20.17z M59.06,15.17v-4.74h5.63c0.75,0,1,0.12,1.12,0.25
	c0.25,0.25,0.5,0.62,0.5,2.12s-0.25,2-0.5,2.25c-0.12,0.12-0.37,0.25-1.12,0.25L59.06,15.17z M74.94,28.49h-25V3.55h24.94v24.94
	H74.94z M43.44,21.8v2.88H31.56V21.8h4.25V10.3h-4.25V7.43h11.88v2.88h-4.25v11.5h4.25V21.8z M23.38,7.43h-3.25l-2.38,13.62L15,8.43
	c-0.12-0.88-0.5-1-1.25-1H12c-0.75,0-1.12,0.25-1.25,1L8,21.05L5.62,7.43h-3.5L5.5,23.8c0.12,0.75,0.38,0.88,1.25,0.88h2.38
	c0.75,0,1-0.12,1.25-0.88L13,11.93l2.62,11.88c0.12,0.75,0.38,0.88,1.25,0.88h2.25c0.75,0,1.12-0.12,1.25-0.88L23.38,7.43z
	 M25.12,28.49h-25V3.55h24.94v24.94H25.12z"/>
</svg>
